<svg version="1.1" xmlns="http://www.w3.org/2000/svg" xmlns:xlink="http://www.w3.org/1999/xlink" width="2650.00"
     height="4096.00" viewBox="0 0 2650.0 4096.0">
    <g id="document" transform="scale(0.9998667998790698 0.9998667998790698) translate(1325.176513671875 2048.0)">
        <g>
            <path d="M-1057.74,-2005.57 C-1122.9,-1976.14 -1151.28,-1926.75 -1163.89,-1822.69 C-1173.35,-1738.61 -1146.03,-1679.75 -1078.76,-1637.71 L-1031.47,-1607.23 L-1031.47,-1456.94 C-1031.47,-1314 -1032.52,-1306.64 -1053.54,-1300.33 C-1065.1,-1296.13 -1096.63,-1279.31 -1121.85,-1261.44 C-1184.92,-1219.4 -1182.81,-1188.92 -1115.55,-1174.21 C-1089.27,-1168.95 -1061.95,-1159.49 -1054.59,-1155.29 C-1048.28,-1150.04 -1037.77,-1148.98 -1032.52,-1152.14 C-1014.65,-1163.7 -1008.34,-1120.61 -1000.99,-931.421 C-992.577,-719.113 -979.965,-678.123 -922.158,-663.409 C-889.576,-653.95 -837.025,-673.919 -828.617,-698.093 C-822.311,-717.011 -832.821,-862.053 -859.097,-1113.25 L-864.352,-1167.9 L-698.289,-1163.7 C-606.85,-1161.6 -491.236,-1159.49 -441.838,-1159.49 L-350.399,-1158.44 L-336.735,-1124.81 C-312.562,-1065.95 -318.868,-935.625 -352.501,-806.349 C-409.256,-587.735 -443.94,-448.999 -449.195,-417.468 C-452.348,-400.652 -466.012,-324.978 -479.675,-249.304 C-493.339,-174.68 -508.053,-82.19 -511.206,-44.3529 C-519.614,57.5969 -524.869,118.557 -532.227,223.659 C-549.043,449.631 -481.777,754.429 -389.287,864.787 C-327.276,938.359 -242.143,1015.08 -166.469,1065.53 C-100.254,1108.63 76.3191,1193.76 214.004,1248.41 C235.024,1256.82 300.188,1269.43 340.127,1273.64 C351.689,1273.64 380.066,1285.2 403.189,1298.86 L445.23,1323.04 L442.077,1419.73 C438.924,1510.12 406.342,1657.26 389.526,1659.36 C359.046,1662.52 341.178,1668.82 335.923,1678.28 C317.005,1707.71 165.657,1749.75 72.115,1751.86 C14.3084,1752.91 -69.7739,1766.57 -72.927,1774.98 C-75.0291,1780.23 -85.5394,1784.44 -96.0496,1784.44 C-120.223,1784.44 -133.887,1836.99 -118.121,1867.47 C-97.1007,1906.36 12.2063,1908.46 74.217,1870.62 C112.054,1846.45 219.259,1828.58 240.28,1842.24 C246.586,1846.45 235.024,1864.32 215.055,1884.28 C160.401,1936.84 150.942,1958.91 171.963,1990.44 C194.034,2025.12 232.922,2023.02 263.402,1985.18 C277.066,1969.42 304.392,1944.19 324.362,1930.53 C344.331,1916.87 367.454,1899 374.811,1891.64 C383.219,1884.28 403.189,1874.83 420.005,1871.67 C436.822,1868.52 453.638,1861.16 456.791,1856.96 C459.945,1851.7 471.506,1847.5 482.016,1847.5 C508.292,1847.5 537.721,1790.74 531.415,1753.96 C528.261,1739.24 534.568,1710.87 545.078,1689.84 C555.588,1669.88 573.456,1605.76 586.068,1549.01 C598.68,1490.15 618.65,1427.09 632.313,1407.12 C645.977,1386.1 664.895,1352.46 674.354,1331.44 C683.814,1310.42 699.579,1289.4 710.089,1286.25 C719.549,1282.05 784.712,1274.69 854.08,1269.43 C993.867,1258.92 1077.95,1243.16 1102.12,1224.24 C1110.53,1216.88 1129.45,1194.81 1144.16,1174.84 C1183.05,1122.29 1173.59,1063.43 1115.79,1003.52 C1068.49,954.124 1007.53,839.562 969.694,730.255 C950.775,673.5 942.367,618.846 933.959,478.008 C928.703,378.161 919.244,231.017 912.938,150.087 C907.683,69.1582 900.326,-65.3735 897.173,-149.456 C890.866,-336.539 863.54,-733.828 849.876,-848.39 C836.213,-956.646 741.62,-1189.97 711.14,-1189.97 C706.936,-1189.97 702.732,-1196.28 702.732,-1203.64 C702.732,-1210.99 693.273,-1227.81 681.712,-1240.42 C670.15,-1253.04 660.691,-1265.65 660.691,-1269.85 C660.691,-1274.06 653.334,-1284.57 644.926,-1294.03 C577.66,-1368.65 545.078,-1406.49 545.078,-1412.79 C545.078,-1418.05 537.721,-1421.2 529.312,-1421.2 C520.904,-1421.2 513.547,-1428.56 513.547,-1438.02 C513.547,-1446.43 496.731,-1461.14 476.761,-1469.55 C455.74,-1477.96 436.822,-1491.62 433.669,-1498.98 C430.516,-1507.38 420.005,-1516.84 410.546,-1520 C401.087,-1523.15 385.322,-1529.46 376.913,-1534.71 C331.719,-1562.04 294.933,-1577.8 289.678,-1572.55 C287.576,-1569.4 268.657,-1573.6 249.739,-1582.01 C205.596,-1599.88 19.5635,-1604.08 -38.2431,-1589.37 C-111.815,-1569.4 -205.357,-1547.32 -258.959,-1535.76 C-306.255,-1525.25 -385.083,-1488.47 -419.767,-1460.09 C-446.042,-1439.07 -590.033,-1390.72 -647.84,-1383.36 C-664.656,-1381.26 -709.85,-1374.96 -747.687,-1368.65 C-785.525,-1362.34 -833.872,-1353.93 -854.892,-1350.78 L-894.832,-1344.48 L-894.832,-1385.47 C-894.832,-1408.59 -902.189,-1465.34 -910.597,-1513.69 L-925.311,-1600.93 L-880.117,-1645.07 C-826.515,-1695.52 -805.494,-1755.43 -816.004,-1824.8 C-824.413,-1879.45 -874.862,-1971.94 -908.495,-1992.96 C-944.23,-2016.08 -1020.95,-2022.39 -1057.74,-2005.57 Z M238.178,-1363.39 C262.351,-1341.32 266.555,-1328.71 265.504,-1282.46 C264.453,-1214.15 230.82,-1179.46 165.657,-1179.46 C95.2376,-1179.46 54.2475,-1202.59 40.5841,-1250.93 C27.9718,-1298.23 36.38,-1329.76 71.0639,-1366.55 C104.697,-1401.23 198.238,-1400.18 238.178,-1363.39 Z "
                  fill="currentColor" fill-opacity="1.00" stroke-width="0.01" stroke="#ffffff" stroke-linecap="square"
                  stroke-linejoin="miter"/>
            <path d="M138.33,-1329.76 C120.462,-1323.45 120.462,-1273.01 138.33,-1248.83 C147.789,-1236.22 162.503,-1230.96 182.473,-1234.12 C208.749,-1236.22 214.004,-1242.53 217.157,-1270.9 C221.361,-1316.1 179.32,-1347.63 138.33,-1329.76 Z "
                  fill="currentColor" fill-opacity="1.00" stroke-width="0.01" stroke="#ffffff" stroke-linecap="square"
                  stroke-linejoin="miter"/>
        </g>
    </g>
</svg>