<svg version="1.1" id="Layer_1" xmlns="http://www.w3.org/2000/svg" xmlns:xlink="http://www.w3.org/1999/xlink" x="0px" y="0px"
	 width="100%" viewBox="0 0 440 550" enable-background="new 0 0 440 550" xml:space="preserve">
<path fill="#FEFEFF" opacity="1.000000" stroke="none" 
	d="
M441.000000,216.000000 
	C441.000000,327.999969 441.000000,439.499969 441.000000,551.000000 
	C294.333405,551.000000 147.666794,551.000000 1.000139,551.000000 
	C1.000092,367.666779 1.000092,184.333542 1.000046,1.000237 
	C147.666519,1.000158 294.333038,1.000158 440.999786,1.000079 
	C441.000000,72.500000 441.000000,144.000000 441.000000,216.000000 
M248.000000,494.000000 
	C248.000000,494.000000 247.994080,494.006378 248.023193,494.703033 
	C251.450775,496.669312 254.878372,498.635590 258.821106,500.922119 
	C259.527008,501.639404 260.232910,502.356689 261.011566,503.740479 
	C262.673676,504.185150 264.335754,504.629822 266.592590,505.156219 
	C266.980164,505.255157 267.367737,505.354095 268.093719,506.056763 
	C274.550812,507.592987 277.659424,505.520905 277.191498,499.333313 
	C277.195404,498.884308 277.199341,498.435333 277.665344,497.544159 
	C277.382599,494.447205 276.082123,492.426788 272.019501,492.410614 
	C271.016998,491.602295 270.014496,490.793945 268.928314,489.325073 
	C267.991516,488.847198 267.054749,488.369354 265.760620,487.443115 
	C265.205994,486.920410 264.651398,486.397705 263.986145,485.190948 
	C263.271088,484.536743 262.550629,483.888336 261.841827,483.227448 
	C258.456451,480.070709 255.074234,476.910645 252.077377,473.316467 
	C252.632401,472.774231 253.187439,472.231964 254.429810,471.791595 
	C255.285538,470.859955 256.141266,469.928314 257.427979,468.568787 
	C258.303741,467.727539 259.179504,466.886292 260.604492,466.004150 
	C260.752441,465.336578 260.900391,464.668976 261.109528,463.333893 
	C261.094025,462.887787 261.078522,462.441650 261.504272,461.672272 
	C260.670074,461.104370 259.835876,460.536438 258.412964,459.841492 
	C258.026093,459.734741 257.639252,459.627991 256.933807,458.950104 
	C254.915436,459.578033 252.897049,460.205933 250.344299,461.179047 
	C249.298218,461.902985 248.252121,462.626953 246.517731,463.214813 
	C245.349411,464.146942 244.181076,465.079041 242.628555,466.249512 
	C242.628555,466.249512 242.279480,466.536835 241.561172,466.291718 
	C240.832245,466.097443 240.103302,465.903198 239.348938,464.847992 
	C239.289093,462.233398 239.229248,459.618774 239.660263,456.381805 
	C239.288254,452.324188 239.146301,448.223663 238.402496,444.235382 
	C238.182495,443.055695 236.265213,442.192535 235.125702,441.184326 
	C234.184143,442.272858 233.124435,443.284790 232.349045,444.481049 
	C231.939194,445.113373 232.024414,446.066589 231.997162,446.987732 
	C231.997162,446.987732 231.874985,446.887665 231.170975,447.038300 
	C230.697510,450.027802 230.224045,453.017273 229.729889,456.748962 
	C229.693161,457.737579 229.656448,458.726166 228.988632,460.147217 
	C228.915741,468.100555 228.842850,476.053894 228.709549,484.681152 
	C228.673279,485.356689 228.637024,486.032196 228.005844,487.130707 
	C228.083374,490.306152 227.570419,493.643585 228.385880,496.616638 
	C229.437241,500.449768 234.895966,501.563690 238.623901,498.703522 
	C239.215149,497.544647 239.806396,496.385742 240.977951,494.957153 
	C241.149231,493.174683 241.320511,491.392242 241.494736,489.616699 
	C242.426620,489.616699 243.358490,489.616699 244.631119,489.822998 
	C244.631119,489.822998 244.960815,490.046570 245.026733,490.726654 
	C246.015701,491.819733 247.004684,492.912842 248.000000,494.000000 
M109.899872,62.284904 
	C109.587334,60.860535 109.274796,59.436169 108.961479,57.263317 
	C108.908142,56.518997 108.854805,55.774673 108.902214,54.237160 
	C107.875832,50.843006 106.849449,47.448853 105.843330,43.473785 
	C105.876846,43.282951 105.910355,43.092117 106.584198,42.681797 
	C115.579491,37.943363 118.746689,23.794977 109.671570,11.463037 
	C105.222603,6.800572 99.606041,5.466877 93.962067,7.877551 
	C88.678383,10.134335 85.880066,14.874331 85.929649,21.560053 
	C86.013512,23.057673 86.097374,24.555292 86.168533,26.706594 
	C86.360130,27.090908 86.551727,27.475224 86.647614,28.626343 
	C87.799637,32.016273 88.951668,35.406204 90.321152,39.253601 
	C90.547028,39.502628 90.772896,39.751652 91.017647,40.728008 
	C93.028191,41.788399 95.038727,42.848789 97.056740,44.857334 
	C96.939903,53.663551 96.880081,62.471397 96.628761,71.273773 
	C96.599747,72.289993 95.723152,73.563980 94.859970,74.215874 
	C93.047821,75.584435 90.753563,76.362106 89.082611,77.857643 
	C87.167336,79.571869 85.713112,81.801224 84.058594,83.806793 
	C86.270370,84.919853 88.475456,86.046684 90.702652,87.127983 
	C90.971344,87.258423 91.373665,87.079628 91.690392,87.150261 
	C96.155396,88.145859 99.185944,89.961472 99.131958,95.489403 
	C99.047852,104.101280 99.485542,112.742058 100.212830,121.327316 
	C100.541138,125.202843 101.761147,129.106781 103.193329,132.755768 
	C104.638618,136.438156 108.244812,136.209274 111.332260,135.513382 
	C114.611572,134.774307 117.184334,132.814651 116.905128,128.926926 
	C116.465744,122.808731 115.843781,116.703827 115.325104,110.591087 
	C114.668938,102.858116 114.038788,95.122932 113.413239,87.579453 
	C117.930237,87.359245 121.644257,86.959579 125.347939,87.039467 
	C135.605560,87.260727 145.869431,88.103470 156.109406,87.846565 
	C161.241898,87.717804 163.043365,90.217842 163.844299,94.170258 
	C164.526154,97.535179 165.225266,101.195816 164.598343,104.473450 
	C162.245468,116.774185 159.418854,128.986725 156.633850,141.201340 
	C155.249329,147.273575 153.126755,153.205078 152.111511,159.328491 
	C149.626221,174.318604 147.057297,189.330292 145.555496,204.436020 
	C144.495529,215.097351 144.770615,225.939606 145.149841,236.676361 
	C145.352859,242.424072 147.411819,248.082169 147.985672,253.845184 
	C150.095734,275.035950 161.681061,289.640320 180.263626,298.394318 
	C189.836426,302.903900 199.545197,306.639191 207.927948,313.456726 
	C213.482391,317.974030 220.841400,318.716705 227.875732,319.987762 
	C231.189636,320.586578 236.560852,323.400299 236.703278,325.501587 
	C237.211304,332.996521 236.096741,340.645050 235.117844,348.173248 
	C234.780487,350.767761 233.695938,354.532928 231.828354,355.434723 
	C224.835419,358.811188 217.541031,361.854370 210.042770,363.803192 
	C203.796173,365.426697 197.067505,365.098328 190.626068,366.105774 
	C186.805130,366.703430 182.833923,367.902954 182.900864,373.125671 
	C182.946381,376.677490 186.504776,379.914124 190.948151,379.562103 
	C194.439133,379.285553 198.358658,378.730011 201.178543,376.898468 
	C206.456360,373.470490 211.823685,373.258911 218.243622,374.772430 
	C216.547729,376.935303 214.198151,378.437958 212.367905,380.420105 
	C209.890198,383.103546 209.034866,386.436371 212.204163,389.099792 
	C214.963806,391.418945 217.588150,390.217590 219.965088,387.709412 
	C225.586380,381.777557 232.036377,377.093811 240.040466,374.714691 
	C241.730209,374.212463 243.350220,372.771515 244.522751,371.363617 
	C248.216537,366.928345 246.001175,363.169495 243.778763,361.020966 
	C246.102097,355.168793 249.496307,350.290283 249.725021,345.267609 
	C250.180435,335.266602 258.701965,329.963196 261.593903,321.595398 
	C261.676239,321.357117 262.125336,321.169800 262.435791,321.097443 
	C267.639679,319.884827 272.834167,317.812408 278.060394,317.726105 
	C284.342834,317.622345 290.227234,317.652802 296.470764,315.570679 
	C307.633942,311.847961 309.426422,300.207520 301.526031,293.452759 
	C300.146362,292.273102 298.547211,291.107819 297.709320,289.575134 
	C290.956787,277.223022 284.874268,264.602692 284.020874,250.194275 
	C283.080627,234.319122 282.062988,218.447388 281.288727,202.563934 
	C280.658417,189.632614 280.534485,176.675293 279.817932,163.749893 
	C279.222321,153.005814 277.204437,142.276688 277.382324,131.566940 
	C277.749207,109.475616 269.227783,91.056618 255.785995,74.443138 
	C250.423447,67.815254 245.577728,60.579323 237.584503,56.468685 
	C233.037308,54.130219 229.083481,50.233536 224.330276,48.786037 
	C215.013733,45.948864 205.338181,44.564030 195.618362,47.703575 
	C192.575165,48.686543 189.336487,50.125072 186.304184,49.884094 
	C176.806915,49.129326 168.360352,52.060570 160.112457,56.082909 
	C157.021820,57.590153 154.240433,59.908615 151.024094,60.944523 
	C144.108994,63.171707 137.048294,65.004288 129.961533,66.623566 
	C123.811958,68.028694 117.544456,68.917641 111.015709,70.091034 
	C110.550148,67.528557 110.142128,65.282799 109.899872,62.284904 
M42.453918,538.016663 
	C44.884441,539.566956 47.233818,542.260437 49.761654,542.439880 
	C55.841354,542.871399 62.180759,542.934570 68.090019,541.649780 
	C75.594337,540.018250 83.351570,537.098877 85.335739,528.420959 
	C87.467575,519.097229 89.873871,509.495209 89.698952,500.060211 
	C89.389267,483.356049 87.236328,466.684784 85.809471,450.003601 
	C85.486504,446.227905 82.711273,444.605560 79.584686,445.222046 
	C77.910019,445.552216 76.697441,448.226013 75.133369,450.004791 
	C74.421196,449.496948 73.624443,448.919434 72.818283,448.355377 
	C62.667408,441.252991 53.963917,441.846436 47.163319,452.580292 
	C41.876827,460.924286 41.318100,470.201904 41.508907,479.437225 
	C41.630268,485.311432 42.923561,491.895264 49.419346,494.500214 
	C56.783127,497.453186 64.491173,501.654785 72.004608,494.372284 
	C72.963791,493.442596 74.491371,493.099335 76.293190,492.222961 
	C76.532387,495.747833 76.976738,498.548523 76.858482,501.325287 
	C76.604233,507.295441 76.059601,513.253174 75.634964,519.216064 
	C75.106285,526.639954 69.673874,530.700378 63.728317,531.417236 
	C59.710247,531.901672 54.396320,528.649170 51.052044,525.562256 
	C48.216869,522.945251 45.536114,522.630554 43.205364,523.905396 
	C41.203293,525.000427 39.312614,527.973755 39.131725,530.255920 
	C38.948425,532.568604 40.922337,535.052307 42.453918,538.016663 
M405.317047,498.258301 
	C412.032074,494.791260 418.494995,496.830505 424.959442,499.126465 
	C425.728363,499.399536 426.764923,499.816589 427.358612,499.522705 
	C429.432312,498.496277 432.363861,497.582458 433.044952,495.863403 
	C433.614532,494.425720 432.031250,491.154419 430.452026,490.038605 
	C426.472534,487.226776 424.189728,483.839691 423.707062,479.008057 
	C423.046875,472.399567 422.599335,465.726196 421.284637,459.237854 
	C419.686188,451.349213 415.878998,444.744049 406.963593,443.363373 
	C399.010010,442.131653 392.845215,446.309326 387.361145,451.245605 
	C386.152374,452.333679 386.670197,455.339996 386.392914,457.462952 
	C388.450623,457.353943 390.627594,457.633209 392.538422,457.046112 
	C395.505096,456.134491 398.200073,454.246735 401.191345,453.546234 
	C402.661591,453.201935 405.463623,454.128540 406.048431,455.291779 
	C407.490479,458.159943 407.999237,461.497375 408.734131,464.115082 
	C403.074585,464.115082 398.536469,463.993134 394.007080,464.140076 
	C384.120880,464.460785 376.091339,475.989929 379.699493,485.237976 
	C380.860260,488.213165 383.357941,491.640289 386.115967,492.817108 
	C391.947601,495.305389 398.353851,496.447052 405.317047,498.258301 
M157.137054,480.702667 
	C157.539246,479.260315 158.176041,477.838226 158.302383,476.372101 
	C158.809875,470.483673 158.996552,464.537354 154.170609,460.076233 
	C147.101715,453.541687 138.932114,452.009613 129.705917,454.835358 
	C121.716148,457.282410 113.762306,466.603241 113.441101,474.480957 
	C112.997589,485.358002 121.364754,493.776520 136.495743,495.999786 
	C145.353119,497.301270 152.291580,493.470184 157.137054,480.702667 
M340.696381,481.780212 
	C342.349243,489.080536 345.062653,495.550079 351.777405,499.962616 
	C360.296051,505.560516 371.871460,501.542145 374.049377,491.666321 
	C374.390381,490.120148 373.997589,487.606812 372.955383,486.765472 
	C371.662933,485.722107 369.298065,485.567108 367.476715,485.765533 
	C366.145203,485.910583 364.771362,487.067261 363.716553,488.084259 
	C360.817688,490.879303 358.223938,489.869843 356.943207,486.910187 
	C355.058350,482.554504 353.396698,477.928894 352.721680,473.261810 
	C351.587341,465.419220 352.200195,465.019409 359.885742,463.214783 
	C360.531891,463.063080 361.416473,463.049866 361.755798,462.625183 
	C363.010040,461.055389 365.057159,459.269043 364.943176,457.699432 
	C364.833069,456.183228 362.494904,453.700348 361.013397,453.608429 
	C354.756409,453.220032 353.974426,450.031677 355.602051,444.993042 
	C355.802307,444.373077 356.021515,443.550018 355.778870,443.034210 
	C354.947083,441.265961 354.261963,438.661499 352.861694,438.137512 
	C351.377075,437.581909 348.311890,438.451996 347.404633,439.736267 
	C345.542938,442.371582 344.244934,445.598633 343.478455,448.766815 
	C342.443542,453.044983 341.420807,456.778503 336.192932,457.609894 
	C335.154327,457.775116 333.892731,459.546143 333.652161,460.758820 
	C333.463531,461.709473 334.596039,463.829559 335.308197,463.907471 
	C340.820129,464.510437 339.953461,468.289673 339.879486,471.987305 
	C339.819855,474.966461 340.298370,477.956390 340.696381,481.780212 
M195.442123,467.395813 
	C192.083099,468.233063 191.170166,466.942932 192.178024,463.772186 
	C193.840073,458.543396 195.643784,453.340393 196.879883,448.008789 
	C197.198090,446.636353 195.920319,443.768768 194.843002,443.462677 
	C193.244263,443.008392 191.114212,444.086182 189.332108,444.811218 
	C188.762421,445.042938 188.485870,446.194214 188.232742,446.975800 
	C183.014145,463.088348 177.701813,479.172974 172.787003,495.378021 
	C172.258972,497.119080 173.485733,500.713959 174.920364,501.445892 
	C177.669952,502.848724 180.819733,502.042786 182.259293,498.508301 
	C183.539185,495.365936 184.836899,492.230835 185.834213,489.804260 
	C194.065826,492.354797 201.517899,494.902924 209.120529,496.868835 
	C211.306625,497.434113 213.926987,496.319885 216.348236,495.975708 
	C215.275482,493.696960 214.405624,491.285309 213.039017,489.199036 
	C212.414474,488.245636 210.779190,487.987152 209.657120,487.321167 
	C204.652267,484.350739 199.667206,481.346954 194.074051,477.995117 
	C195.928696,476.839935 197.184555,476.130615 198.361908,475.308838 
	C200.650742,473.711365 202.895538,472.050842 205.158585,470.416473 
	C202.224304,469.387177 199.290039,468.357880 195.442123,467.395813 
M310.616699,463.967468 
	C306.346893,463.093719 302.106720,461.808411 297.796356,461.498199 
	C295.144684,461.307404 291.328674,461.719116 289.897461,463.423676 
	C287.016479,466.855042 284.501740,471.135071 283.453278,475.457306 
	C280.836029,486.246765 290.022980,500.354767 301.239899,497.563904 
	C304.120667,496.847107 307.073944,495.955627 309.634552,494.508514 
	C316.442902,490.660858 319.541443,484.070343 320.234497,476.763031 
	C320.817169,470.619171 316.819702,466.639679 310.616699,463.967468 
M147.480408,428.891327 
	C145.576172,431.423767 144.774536,434.361938 147.597198,436.333527 
	C149.528168,437.682251 152.982910,438.859528 154.686279,437.997864 
	C156.664764,436.997101 158.384445,433.763794 158.595856,431.357117 
	C159.006973,426.677185 153.556793,425.263336 147.480408,428.891327 
M135.295242,433.104279 
	C133.807831,432.238251 132.262543,430.587097 130.846634,430.691467 
	C128.757736,430.845459 126.331039,431.834442 124.914398,433.303314 
	C124.250328,433.991821 125.184563,437.805267 126.138382,438.151154 
	C128.329147,438.945648 131.119293,438.971313 133.374710,438.312012 
	C134.424042,438.005280 134.794907,435.377655 135.295242,433.104279 
z"/>
<path fill="#314DA7" opacity="1.000000" stroke="none" 
	d="
M86.157127,20.956394 
	C85.880066,14.874331 88.678383,10.134335 93.962067,7.877551 
	C99.606041,5.466877 105.222603,6.800572 109.816292,12.208232 
	C110.353813,16.553181 110.249252,20.298012 111.247726,23.721102 
	C113.067688,29.960564 111.297119,34.640621 106.651421,38.818150 
	C105.844315,39.543919 106.151405,41.508751 105.943863,42.901283 
	C105.910355,43.092117 105.876846,43.282951 105.583420,44.052010 
	C104.969376,48.603062 104.181915,52.720798 108.801468,55.030354 
	C108.854805,55.774673 108.908142,56.518997 108.702057,57.870903 
	C108.873123,59.998009 109.303619,61.517525 109.734108,63.037041 
	C110.142128,65.282799 110.550148,67.528557 111.015709,70.091034 
	C117.544456,68.917641 123.811958,68.028694 129.961533,66.623566 
	C137.048294,65.004288 144.108994,63.171707 151.024094,60.944523 
	C154.240433,59.908615 157.021820,57.590153 160.112457,56.082909 
	C168.360352,52.060570 176.806915,49.129326 186.304184,49.884094 
	C189.336487,50.125072 192.575165,48.686543 195.618362,47.703575 
	C205.338181,44.564030 215.013733,45.948864 224.330276,48.786037 
	C229.083481,50.233536 233.037308,54.130219 237.584503,56.468685 
	C245.577728,60.579323 250.423447,67.815254 255.785995,74.443138 
	C269.227783,91.056618 277.749207,109.475616 277.382324,131.566940 
	C277.204437,142.276688 279.222321,153.005814 279.817932,163.749893 
	C280.534485,176.675293 280.658417,189.632614 281.288727,202.563934 
	C282.062988,218.447388 283.080627,234.319122 284.020874,250.194275 
	C284.874268,264.602692 290.956787,277.223022 297.709320,289.575134 
	C298.547211,291.107819 300.146362,292.273102 301.526031,293.452759 
	C309.426422,300.207520 307.633942,311.847961 296.470764,315.570679 
	C290.227234,317.652802 284.342834,317.622345 278.060394,317.726105 
	C272.834167,317.812408 267.639679,319.884827 262.435791,321.097443 
	C262.125336,321.169800 261.676239,321.357117 261.593903,321.595398 
	C258.701965,329.963196 250.180435,335.266602 249.725021,345.267609 
	C249.496307,350.290283 246.102097,355.168793 243.778763,361.020966 
	C246.001175,363.169495 248.216537,366.928345 244.522751,371.363617 
	C243.350220,372.771515 241.730209,374.212463 240.040466,374.714691 
	C232.036377,377.093811 225.586380,381.777557 219.965088,387.709412 
	C217.588150,390.217590 214.963806,391.418945 212.204163,389.099792 
	C209.034866,386.436371 209.890198,383.103546 212.367905,380.420105 
	C214.198151,378.437958 216.547729,376.935303 218.243622,374.772430 
	C211.823685,373.258911 206.456360,373.470490 201.178543,376.898468 
	C198.358658,378.730011 194.439133,379.285553 190.948151,379.562103 
	C186.504776,379.914124 182.946381,376.677490 182.900864,373.125671 
	C182.833923,367.902954 186.805130,366.703430 190.626068,366.105774 
	C197.067505,365.098328 203.796173,365.426697 210.042770,363.803192 
	C217.541031,361.854370 224.835419,358.811188 231.828354,355.434723 
	C233.695938,354.532928 234.780487,350.767761 235.117844,348.173248 
	C236.096741,340.645050 237.211304,332.996521 236.703278,325.501587 
	C236.560852,323.400299 231.189636,320.586578 227.875732,319.987762 
	C220.841400,318.716705 213.482391,317.974030 207.927948,313.456726 
	C199.545197,306.639191 189.836426,302.903900 180.263626,298.394318 
	C161.681061,289.640320 150.095734,275.035950 147.985672,253.845184 
	C147.411819,248.082169 145.352859,242.424072 145.149841,236.676361 
	C144.770615,225.939606 144.495529,215.097351 145.555496,204.436020 
	C147.057297,189.330292 149.626221,174.318604 152.111511,159.328491 
	C153.126755,153.205078 155.249329,147.273575 156.633850,141.201340 
	C159.418854,128.986725 162.245468,116.774185 164.598343,104.473450 
	C165.225266,101.195816 164.526154,97.535179 163.844299,94.170258 
	C163.043365,90.217842 161.241898,87.717804 156.109406,87.846565 
	C145.869431,88.103470 135.605560,87.260727 125.347939,87.039467 
	C121.644257,86.959579 117.930237,87.359245 113.413239,87.579453 
	C114.038788,95.122932 114.668938,102.858116 115.325104,110.591087 
	C115.843781,116.703827 116.465744,122.808731 116.905128,128.926926 
	C117.184334,132.814651 114.611572,134.774307 111.332260,135.513382 
	C108.244812,136.209274 104.638618,136.438156 103.193329,132.755768 
	C101.761147,129.106781 100.541138,125.202843 100.212830,121.327316 
	C99.485542,112.742058 99.047852,104.101280 99.131958,95.489403 
	C99.185944,89.961472 96.155396,88.145859 91.690392,87.150261 
	C91.373665,87.079628 90.971344,87.258423 90.702652,87.127983 
	C88.475456,86.046684 86.270370,84.919853 84.058594,83.806793 
	C85.713112,81.801224 87.167336,79.571869 89.082611,77.857643 
	C90.753563,76.362106 93.047821,75.584435 94.859970,74.215874 
	C95.723152,73.563980 96.599747,72.289993 96.628761,71.273773 
	C96.880081,62.471397 96.939903,53.663551 97.057831,44.001274 
	C96.544189,39.195972 93.413841,40.287563 90.998764,40.000679 
	C90.772896,39.751652 90.547028,39.502628 90.192581,38.637390 
	C88.957115,34.633961 87.850220,31.246750 86.743324,27.859537 
	C86.551727,27.475224 86.360130,27.090908 86.505829,26.277763 
	C86.614464,24.218086 86.385796,22.587240 86.157127,20.956394 
M212.155716,85.980820 
	C217.037155,85.390968 219.804810,82.921242 220.474457,77.788261 
	C221.037445,73.472969 220.799927,69.162880 216.405426,67.865898 
	C212.284409,66.649612 207.054504,65.977753 203.325958,67.518593 
	C199.337250,69.166946 197.351334,73.939537 198.965622,78.994812 
	C200.490799,83.771027 203.770874,85.668549 212.155716,85.980820 
z"/>
<path fill="#4A62B1" opacity="1.000000" stroke="none" 
	d="
M42.202660,537.738892 
	C40.922337,535.052307 38.948425,532.568604 39.131725,530.255920 
	C39.312614,527.973755 41.203293,525.000427 43.205364,523.905396 
	C45.536114,522.630554 48.216869,522.945251 51.052044,525.562256 
	C54.396320,528.649170 59.710247,531.901672 63.728317,531.417236 
	C69.673874,530.700378 75.106285,526.639954 75.634964,519.216064 
	C76.059601,513.253174 76.604233,507.295441 76.858482,501.325287 
	C76.976738,498.548523 76.532387,495.747833 76.293190,492.222961 
	C74.491371,493.099335 72.963791,493.442596 72.004608,494.372284 
	C64.491173,501.654785 56.783127,497.453186 49.419346,494.500214 
	C42.923561,491.895264 41.630268,485.311432 41.508907,479.437225 
	C41.318100,470.201904 41.876827,460.924286 47.163319,452.580292 
	C53.963917,441.846436 62.667408,441.252991 72.818283,448.355377 
	C73.624443,448.919434 74.421196,449.496948 75.133369,450.004791 
	C76.697441,448.226013 77.910019,445.552216 79.584686,445.222046 
	C82.711273,444.605560 85.486504,446.227905 85.809471,450.003601 
	C87.236328,466.684784 89.389267,483.356049 89.698952,500.060211 
	C89.873871,509.495209 87.467575,519.097229 85.335739,528.420959 
	C83.351570,537.098877 75.594337,540.018250 68.090019,541.649780 
	C62.180759,542.934570 55.841354,542.871399 49.761654,542.439880 
	C47.233818,542.260437 44.884441,539.566956 42.202660,537.738892 
M61.598377,452.788971 
	C53.240772,458.691803 51.131577,467.349609 51.079517,476.860474 
	C51.051346,482.008575 54.431408,485.262695 58.412766,487.342651 
	C60.141148,488.245605 63.612289,487.665314 65.322502,486.423615 
	C72.039871,481.546265 78.540169,476.230377 75.763947,466.284790 
	C75.590752,465.664337 75.723656,464.958740 75.712097,464.292816 
	C75.586769,457.066956 69.675949,451.851532 61.598377,452.788971 
z"/>
<path fill="#3C56AC" opacity="1.000000" stroke="none" 
	d="
M404.920715,498.199707 
	C398.353851,496.447052 391.947601,495.305389 386.115967,492.817108 
	C383.357941,491.640289 380.860260,488.213165 379.699493,485.237976 
	C376.091339,475.989929 384.120880,464.460785 394.007080,464.140076 
	C398.536469,463.993134 403.074585,464.115082 408.734131,464.115082 
	C407.999237,461.497375 407.490479,458.159943 406.048431,455.291779 
	C405.463623,454.128540 402.661591,453.201935 401.191345,453.546234 
	C398.200073,454.246735 395.505096,456.134491 392.538422,457.046112 
	C390.627594,457.633209 388.450623,457.353943 386.392914,457.462952 
	C386.670197,455.339996 386.152374,452.333679 387.361145,451.245605 
	C392.845215,446.309326 399.010010,442.131653 406.963593,443.363373 
	C415.878998,444.744049 419.686188,451.349213 421.284637,459.237854 
	C422.599335,465.726196 423.046875,472.399567 423.707062,479.008057 
	C424.189728,483.839691 426.472534,487.226776 430.452026,490.038605 
	C432.031250,491.154419 433.614532,494.425720 433.044952,495.863403 
	C432.363861,497.582458 429.432312,498.496277 427.358612,499.522705 
	C426.764923,499.816589 425.728363,499.399536 424.959442,499.126465 
	C418.494995,496.830505 412.032074,494.791260 404.920715,498.199707 
M404.201263,484.144958 
	C405.527374,483.160919 407.024963,482.339447 408.144012,481.159058 
	C410.506531,478.666992 410.094788,473.408478 407.510040,473.222565 
	C403.805908,472.956146 399.756226,472.934937 396.393829,474.220642 
	C394.440582,474.967499 392.491241,478.499420 392.541870,480.732697 
	C392.575378,482.211426 395.994080,484.021149 398.208038,484.899933 
	C399.693970,485.489807 401.723755,484.709686 404.201263,484.144958 
z"/>
<path fill="#3C56AC" opacity="1.000000" stroke="none" 
	d="
M157.011063,481.074738 
	C152.291580,493.470184 145.353119,497.301270 136.495743,495.999786 
	C121.364754,493.776520 112.997589,485.358002 113.441101,474.480957 
	C113.762306,466.603241 121.716148,457.282410 129.705917,454.835358 
	C138.932114,452.009613 147.101715,453.541687 154.170609,460.076233 
	C158.996552,464.537354 158.809875,470.483673 158.302383,476.372101 
	C158.176041,477.838226 157.539246,479.260315 157.011063,481.074738 
M126.666191,480.735565 
	C128.417297,481.977661 130.050034,483.990540 131.947128,484.281830 
	C134.816956,484.722504 138.538956,484.961395 140.707916,483.508301 
	C145.265030,480.455383 146.463989,472.084473 143.830078,468.185242 
	C141.752365,465.109467 137.345459,465.001465 131.171204,467.876953 
	C130.870468,468.017029 130.583801,468.189209 130.278137,468.316650 
	C123.322914,471.216064 122.555641,473.436523 126.666191,480.735565 
z"/>
<path fill="#3A55AB" opacity="1.000000" stroke="none" 
	d="
M257.252380,459.521240 
	C257.639252,459.627991 258.026093,459.734741 258.815063,460.185699 
	C259.832489,461.018463 260.447754,461.506989 261.063049,461.995544 
	C261.078522,462.441650 261.094025,462.887787 260.813934,463.826385 
	C260.363983,464.894287 260.209656,465.469666 260.055298,466.045074 
	C259.179504,466.886292 258.303741,467.727539 256.884094,468.786499 
	C255.474319,469.899353 254.608398,470.794556 253.742462,471.689728 
	C253.187439,472.231964 252.632401,472.774231 251.562927,473.623840 
	C250.888107,474.777222 250.310349,476.128235 250.630524,476.392883 
	C254.869278,479.896362 258.038177,484.967621 264.096802,485.874969 
	C264.651398,486.397705 265.205994,486.920410 265.987976,487.997864 
	C267.147583,489.030273 268.079803,489.507935 269.011993,489.985626 
	C270.014496,490.793945 271.016998,491.602295 272.439392,492.849243 
	C274.307312,494.854034 275.755310,496.420166 277.203278,497.986328 
	C277.199341,498.435333 277.195404,498.884308 276.892609,499.882507 
	C275.587341,505.519806 271.224854,504.700562 267.755310,505.453033 
	C267.367737,505.354095 266.980164,505.255157 266.096436,504.832336 
	C264.046448,504.030304 262.492645,503.552155 260.938782,503.073975 
	C260.232910,502.356689 259.527008,501.639404 258.463196,500.441956 
	C254.734863,497.976624 251.364471,495.991486 247.994080,494.006378 
	C247.994080,494.006378 248.000000,494.000000 247.993195,493.652130 
	C246.977859,492.218384 245.969330,491.132477 244.960815,490.046570 
	C244.960815,490.046570 244.631119,489.822998 244.335602,489.398438 
	C242.762726,488.239502 241.485367,487.505127 238.921890,486.031311 
	C239.567688,490.055328 239.982666,492.641113 240.397644,495.226868 
	C239.806396,496.385742 239.215149,497.544647 237.949341,498.862549 
	C230.417938,498.684174 229.087418,497.307495 228.970749,490.557770 
	C228.948517,489.272644 228.729156,487.990997 228.600754,486.707733 
	C228.637024,486.032196 228.673279,485.356689 229.058350,484.069458 
	C229.478012,475.543427 229.548859,467.629089 229.619705,459.714783 
	C229.656448,458.726166 229.693161,457.737579 230.050079,456.137329 
	C230.871857,452.646362 231.373428,449.766998 231.875000,446.887665 
	C231.874985,446.887665 231.997162,446.987732 232.309265,446.950500 
	C236.190857,445.504883 237.715515,447.057678 238.090668,450.553223 
	C238.322906,452.717224 238.801437,454.854767 239.169403,457.004181 
	C239.229248,459.618774 239.289093,462.233398 239.210495,465.606415 
	C239.323120,467.076691 239.574188,467.788513 239.825226,468.500366 
	C240.643295,467.845825 241.461380,467.191315 242.279480,466.536804 
	C242.279480,466.536835 242.628555,466.249512 243.156998,466.134399 
	C244.858978,465.129822 246.032501,464.240326 247.206024,463.350891 
	C248.252121,462.626953 249.298218,461.902985 251.016617,461.034088 
	C253.543411,460.433167 255.397903,459.977203 257.252380,459.521240 
z"/>
<path fill="#3D57AC" opacity="1.000000" stroke="none" 
	d="
M340.617249,481.360901 
	C340.298370,477.956390 339.819855,474.966461 339.879486,471.987305 
	C339.953461,468.289673 340.820129,464.510437 335.308197,463.907471 
	C334.596039,463.829559 333.463531,461.709473 333.652161,460.758820 
	C333.892731,459.546143 335.154327,457.775116 336.192932,457.609894 
	C341.420807,456.778503 342.443542,453.044983 343.478455,448.766815 
	C344.244934,445.598633 345.542938,442.371582 347.404633,439.736267 
	C348.311890,438.451996 351.377075,437.581909 352.861694,438.137512 
	C354.261963,438.661499 354.947083,441.265961 355.778870,443.034210 
	C356.021515,443.550018 355.802307,444.373077 355.602051,444.993042 
	C353.974426,450.031677 354.756409,453.220032 361.013397,453.608429 
	C362.494904,453.700348 364.833069,456.183228 364.943176,457.699432 
	C365.057159,459.269043 363.010040,461.055389 361.755798,462.625183 
	C361.416473,463.049866 360.531891,463.063080 359.885742,463.214783 
	C352.200195,465.019409 351.587341,465.419220 352.721680,473.261810 
	C353.396698,477.928894 355.058350,482.554504 356.943207,486.910187 
	C358.223938,489.869843 360.817688,490.879303 363.716553,488.084259 
	C364.771362,487.067261 366.145203,485.910583 367.476715,485.765533 
	C369.298065,485.567108 371.662933,485.722107 372.955383,486.765472 
	C373.997589,487.606812 374.390381,490.120148 374.049377,491.666321 
	C371.871460,501.542145 360.296051,505.560516 351.777405,499.962616 
	C345.062653,495.550079 342.349243,489.080536 340.617249,481.360901 
z"/>
<path fill="#3F58AD" opacity="1.000000" stroke="none" 
	d="
M195.898956,467.362183 
	C199.290039,468.357880 202.224304,469.387177 205.158569,470.416443 
	C202.895538,472.050842 200.650742,473.711365 198.361908,475.308838 
	C197.184555,476.130615 195.928696,476.839935 194.074051,477.995117 
	C199.667206,481.346954 204.652267,484.350739 209.657120,487.321167 
	C210.779190,487.987152 212.414474,488.245636 213.039017,489.199036 
	C214.405624,491.285309 215.275482,493.696960 216.348236,495.975708 
	C213.926987,496.319885 211.306625,497.434113 209.120529,496.868835 
	C201.517899,494.902924 194.065826,492.354797 185.834213,489.804260 
	C184.836899,492.230835 183.539185,495.365936 182.259293,498.508301 
	C180.819733,502.042786 177.669952,502.848724 174.920364,501.445892 
	C173.485733,500.713959 172.258972,497.119080 172.787003,495.378021 
	C177.701813,479.172974 183.014145,463.088348 188.232742,446.975800 
	C188.485870,446.194214 188.762421,445.042938 189.332108,444.811218 
	C191.114212,444.086182 193.244263,443.008392 194.843002,443.462677 
	C195.920319,443.768768 197.198090,446.636353 196.879883,448.008789 
	C195.643784,453.340393 193.840073,458.543396 192.178024,463.772186 
	C191.170166,466.942932 192.083099,468.233063 195.898956,467.362183 
z"/>
<path fill="#3E58AD" opacity="1.000000" stroke="none" 
	d="
M310.919128,464.179382 
	C316.819702,466.639679 320.817169,470.619171 320.234497,476.763031 
	C319.541443,484.070343 316.442902,490.660858 309.634552,494.508514 
	C307.073944,495.955627 304.120667,496.847107 301.239899,497.563904 
	C290.022980,500.354767 280.836029,486.246765 283.453278,475.457306 
	C284.501740,471.135071 287.016479,466.855042 289.897461,463.423676 
	C291.328674,461.719116 295.144684,461.307404 297.796356,461.498199 
	C302.106720,461.808411 306.346893,463.093719 310.919128,464.179382 
M305.344299,483.734344 
	C309.295441,475.026276 309.133331,474.706848 297.094025,468.002319 
	C293.843109,471.316711 292.354980,475.450012 292.670197,480.002472 
	C292.872742,482.927551 294.076569,485.783325 294.831573,488.670166 
	C298.198029,487.232056 301.564453,485.793945 305.344299,483.734344 
z"/>
<path fill="#4A62B1" opacity="1.000000" stroke="none" 
	d="
M147.723480,428.641602 
	C153.556793,425.263336 159.006973,426.677185 158.595856,431.357117 
	C158.384445,433.763794 156.664764,436.997101 154.686279,437.997864 
	C152.982910,438.859528 149.528168,437.682251 147.597198,436.333527 
	C144.774536,434.361938 145.576172,431.423767 147.723480,428.641602 
z"/>
<path fill="#5169B5" opacity="1.000000" stroke="none" 
	d="
M135.384277,433.453186 
	C134.794907,435.377655 134.424042,438.005280 133.374710,438.312012 
	C131.119293,438.971313 128.329147,438.945648 126.138382,438.151154 
	C125.184563,437.805267 124.250328,433.991821 124.914398,433.303314 
	C126.331039,431.834442 128.757736,430.845459 130.846634,430.691467 
	C132.262543,430.587097 133.807831,432.238251 135.384277,433.453186 
z"/>
<path fill="#4B63B2" opacity="1.000000" stroke="none" 
	d="
M106.264030,42.791542 
	C106.151405,41.508751 105.844315,39.543919 106.651421,38.818150 
	C111.297119,34.640621 113.067688,29.960564 111.247726,23.721102 
	C110.249252,20.298012 110.353813,16.553181 109.957962,12.529028 
	C118.746689,23.794977 115.579491,37.943363 106.264030,42.791542 
z"/>
<path fill="#919FD0" opacity="1.000000" stroke="none" 
	d="
M239.414825,456.692993 
	C238.801437,454.854767 238.322906,452.717224 238.090668,450.553223 
	C237.715515,447.057678 236.190857,445.504883 232.253738,446.894104 
	C232.024414,446.066589 231.939194,445.113373 232.349045,444.481049 
	C233.124435,443.284790 234.184143,442.272858 235.125702,441.184326 
	C236.265213,442.192535 238.182495,443.055695 238.402496,444.235382 
	C239.146301,448.223663 239.288254,452.324188 239.414825,456.692993 
z"/>
<path fill="#919FD0" opacity="1.000000" stroke="none" 
	d="
M229.304169,459.931000 
	C229.548859,467.629089 229.478012,475.543427 229.088562,483.732483 
	C228.842850,476.053894 228.915741,468.100555 229.304169,459.931000 
z"/>
<path fill="#919FD0" opacity="1.000000" stroke="none" 
	d="
M228.303299,486.919220 
	C228.729156,487.990997 228.948517,489.272644 228.970749,490.557770 
	C229.087418,497.307495 230.417938,498.684174 237.688690,499.061859 
	C234.895966,501.563690 229.437241,500.449768 228.385880,496.616638 
	C227.570419,493.643585 228.083374,490.306152 228.303299,486.919220 
z"/>
<path fill="#A4B0D8" opacity="1.000000" stroke="none" 
	d="
M264.041473,485.532959 
	C258.038177,484.967621 254.869278,479.896362 250.630524,476.392883 
	C250.310349,476.128235 250.888107,474.777222 251.369659,473.841461 
	C255.074234,476.910645 258.456451,480.070709 261.841827,483.227448 
	C262.550629,483.888336 263.271088,484.536743 264.041473,485.532959 
z"/>
<path fill="#4B63B2" opacity="1.000000" stroke="none" 
	d="
M108.851837,54.633759 
	C104.181915,52.720798 104.969376,48.603062 105.573288,44.342464 
	C106.849449,47.448853 107.875832,50.843006 108.851837,54.633759 
z"/>
<path fill="#A4B0D8" opacity="1.000000" stroke="none" 
	d="
M267.924500,505.754883 
	C271.224854,504.700562 275.587341,505.519806 276.882111,500.219116 
	C277.659424,505.520905 274.550812,507.592987 267.924500,505.754883 
z"/>
<path fill="#A4B0D8" opacity="1.000000" stroke="none" 
	d="
M248.008636,494.354706 
	C251.364471,495.991486 254.734863,497.976624 258.205627,500.281799 
	C254.878372,498.635590 251.450775,496.669312 248.008636,494.354706 
z"/>
<path fill="#A4B0D8" opacity="1.000000" stroke="none" 
	d="
M240.687805,495.092010 
	C239.982666,492.641113 239.567688,490.055328 238.921890,486.031311 
	C241.485367,487.505127 242.762726,488.239502 244.165222,489.295288 
	C243.358490,489.616699 242.426620,489.616699 241.493256,489.613220 
	C241.320511,491.392242 241.149231,493.174683 240.687805,495.092010 
z"/>
<path fill="#6278BC" opacity="1.000000" stroke="none" 
	d="
M91.008209,40.364342 
	C93.413841,40.287563 96.544189,39.195972 97.054092,43.527195 
	C95.038727,42.848789 93.028191,41.788399 91.008209,40.364342 
z"/>
<path fill="#6278BC" opacity="1.000000" stroke="none" 
	d="
M86.695465,28.242939 
	C87.850220,31.246750 88.957115,34.633961 90.083855,38.408653 
	C88.951668,35.406204 87.799637,32.016273 86.695465,28.242939 
z"/>
<path fill="#919FD0" opacity="1.000000" stroke="none" 
	d="
M231.522980,446.962982 
	C231.373428,449.766998 230.871857,452.646362 230.060425,455.766235 
	C230.224045,453.017273 230.697510,450.027802 231.522980,446.962982 
z"/>
<path fill="#A4B0D8" opacity="1.000000" stroke="none" 
	d="
M277.434326,497.765259 
	C275.755310,496.420166 274.307312,494.854034 272.719299,493.011963 
	C276.082123,492.426788 277.382599,494.447205 277.434326,497.765259 
z"/>
<path fill="#6278BC" opacity="1.000000" stroke="none" 
	d="
M86.043388,21.258224 
	C86.385796,22.587240 86.614464,24.218086 86.512184,25.950922 
	C86.097374,24.555292 86.013512,23.057673 86.043388,21.258224 
z"/>
<path fill="#A4B0D8" opacity="1.000000" stroke="none" 
	d="
M257.093079,459.235657 
	C255.397903,459.977203 253.543411,460.433167 251.283813,460.861481 
	C252.897049,460.205933 254.915436,459.578033 257.093079,459.235657 
z"/>
<path fill="#4B63B2" opacity="1.000000" stroke="none" 
	d="
M109.816986,62.660973 
	C109.303619,61.517525 108.873123,59.998009 108.702438,58.245148 
	C109.274796,59.436169 109.587334,60.860535 109.816986,62.660973 
z"/>
<path fill="#A4B0D8" opacity="1.000000" stroke="none" 
	d="
M260.975189,503.407227 
	C262.492645,503.552155 264.046448,504.030304 265.799072,504.791473 
	C264.335754,504.629822 262.673676,504.185150 260.975189,503.407227 
z"/>
<path fill="#919FD0" opacity="1.000000" stroke="none" 
	d="
M241.920319,466.414246 
	C241.461380,467.191315 240.643295,467.845825 239.825226,468.500366 
	C239.574188,467.788513 239.323120,467.076691 239.223206,466.036865 
	C240.103302,465.903198 240.832245,466.097443 241.920319,466.414246 
z"/>
<path fill="#A4B0D8" opacity="1.000000" stroke="none" 
	d="
M244.993774,490.386597 
	C245.969330,491.132477 246.977859,492.218384 247.990021,493.655090 
	C247.004684,492.912842 246.015701,491.819733 244.993774,490.386597 
z"/>
<path fill="#919FD0" opacity="1.000000" stroke="none" 
	d="
M246.861877,463.282837 
	C246.032501,464.240326 244.858978,465.129822 243.349091,466.015228 
	C244.181076,465.079041 245.349411,464.146942 246.861877,463.282837 
z"/>
<path fill="#A4B0D8" opacity="1.000000" stroke="none" 
	d="
M254.086136,471.740662 
	C254.608398,470.794556 255.474319,469.899353 256.668640,469.000427 
	C256.141266,469.928314 255.285538,470.859955 254.086136,471.740662 
z"/>
<path fill="#A4B0D8" opacity="1.000000" stroke="none" 
	d="
M261.283661,461.833923 
	C260.447754,461.506989 259.832489,461.018463 259.109436,460.249207 
	C259.835876,460.536438 260.670074,461.104370 261.283661,461.833923 
z"/>
<path fill="#A4B0D8" opacity="1.000000" stroke="none" 
	d="
M268.970154,489.655334 
	C268.079803,489.507935 267.147583,489.030273 266.166656,488.222046 
	C267.054749,488.369354 267.991516,488.847198 268.970154,489.655334 
z"/>
<path fill="#A4B0D8" opacity="1.000000" stroke="none" 
	d="
M260.329895,466.024597 
	C260.209656,465.469666 260.363983,464.894287 260.783356,464.160156 
	C260.900391,464.668976 260.752441,465.336578 260.329895,466.024597 
z"/>
<path fill="#F6F7FB" opacity="1.000000" stroke="none" 
	d="
M211.734894,85.968559 
	C203.770874,85.668549 200.490799,83.771027 198.965622,78.994812 
	C197.351334,73.939537 199.337250,69.166946 203.325958,67.518593 
	C207.054504,65.977753 212.284409,66.649612 216.405426,67.865898 
	C220.799927,69.162880 221.037445,73.472969 220.474457,77.788261 
	C219.804810,82.921242 217.037155,85.390968 211.734894,85.968559 
M213.312561,81.060104 
	C217.475296,79.622215 216.639221,76.014587 215.353561,73.752060 
	C214.492630,72.237000 211.227493,72.088112 209.038162,71.327904 
	C208.440521,73.639786 207.110321,76.093582 207.520355,78.210274 
	C207.765869,79.477669 210.733444,80.217766 213.312561,81.060104 
z"/>
<path fill="#F8F9FC" opacity="1.000000" stroke="none" 
	d="
M61.922237,452.599854 
	C69.675949,451.851532 75.586769,457.066956 75.712097,464.292816 
	C75.723656,464.958740 75.590752,465.664337 75.763947,466.284790 
	C78.540169,476.230377 72.039871,481.546265 65.322502,486.423615 
	C63.612289,487.665314 60.141148,488.245605 58.412766,487.342651 
	C54.431408,485.262695 51.051346,482.008575 51.079517,476.860474 
	C51.131577,467.349609 53.240772,458.691803 61.922237,452.599854 
z"/>
<path fill="#ECEEF7" opacity="1.000000" stroke="none" 
	d="
M403.855713,484.343750 
	C401.723755,484.709686 399.693970,485.489807 398.208038,484.899933 
	C395.994080,484.021149 392.575378,482.211426 392.541870,480.732697 
	C392.491241,478.499420 394.440582,474.967499 396.393829,474.220642 
	C399.756226,472.934937 403.805908,472.956146 407.510040,473.222565 
	C410.094788,473.408478 410.506531,478.666992 408.144012,481.159058 
	C407.024963,482.339447 405.527374,483.160919 403.855713,484.343750 
z"/>
<path fill="#F0F2F9" opacity="1.000000" stroke="none" 
	d="
M126.430328,480.442444 
	C122.555641,473.436523 123.322914,471.216064 130.278137,468.316650 
	C130.583801,468.189209 130.870468,468.017029 131.171204,467.876953 
	C137.345459,465.001465 141.752365,465.109467 143.830078,468.185242 
	C146.463989,472.084473 145.265030,480.455383 140.707916,483.508301 
	C138.538956,484.961395 134.816956,484.722504 131.947128,484.281830 
	C130.050034,483.990540 128.417297,481.977661 126.430328,480.442444 
z"/>
<path fill="#ECEEF7" opacity="1.000000" stroke="none" 
	d="
M305.137604,484.045105 
	C301.564453,485.793945 298.198029,487.232056 294.831604,488.670166 
	C294.076569,485.783325 292.872742,482.927551 292.670197,480.002472 
	C292.354980,475.450012 293.843109,471.316711 297.094025,468.002319 
	C309.133331,474.706848 309.295441,475.026276 305.137604,484.045105 
z"/>
<path fill="#3A55AB" opacity="1.000000" stroke="none" 
	d="
M212.895050,81.127487 
	C210.733444,80.217766 207.765869,79.477669 207.520355,78.210274 
	C207.110321,76.093582 208.440521,73.639786 209.038162,71.327904 
	C211.227493,72.088112 214.492630,72.237000 215.353561,73.752060 
	C216.639221,76.014587 217.475296,79.622215 212.895050,81.127487 
z"/>
</svg>