<?xml version="1.0" standalone="no"?>
<!DOCTYPE svg PUBLIC "-//W3C//DTD SVG 20010904//EN"
 "http://www.w3.org/TR/2001/REC-SVG-20010904/DTD/svg10.dtd">
<svg version="1.0" xmlns="http://www.w3.org/2000/svg"
 width="457.000000pt" height="136.000000pt" viewBox="0 0 457.000000 136.000000"
 preserveAspectRatio="xMidYMid meet">

<g transform="translate(0.000000,136.000000) scale(0.100000,-0.100000)"
fill="#000000" stroke="none">
<path d="M3260 1342 c-26 -21 -38 -74 -46 -202 -6 -83 -7 -86 -42 -117 -31
-26 -35 -35 -26 -50 6 -10 23 -19 37 -21 23 -3 26 -8 32 -60 3 -31 8 -77 11
-103 14 -116 90 -174 230 -174 90 0 124 17 124 60 0 38 -24 49 -80 38 -28 -6
-69 -7 -92 -3 -70 13 -76 27 -94 227 l-7 73 29 10 c63 22 79 35 79 65 0 30 0
30 -54 28 l-53 -3 5 114 c7 135 -3 158 -53 118z"/>
<path d="M2782 1318 c-6 -8 -16 -56 -23 -108 -7 -52 -17 -98 -22 -102 -6 -3
-38 -9 -71 -13 -34 -4 -72 -14 -85 -22 -21 -14 -22 -16 -7 -31 11 -11 39 -18
87 -20 l71 -4 -8 -77 c-5 -42 -9 -126 -9 -187 0 -106 1 -112 28 -147 36 -48
86 -64 142 -45 35 11 40 17 43 47 4 42 -10 52 -54 38 -54 -17 -64 0 -64 104 0
48 5 133 11 189 l12 100 51 0 c62 0 79 10 74 41 -3 22 -9 24 -60 27 l-58 3 3
107 2 107 -26 3 c-14 2 -31 -3 -37 -10z"/>
<path d="M3869 1267 c-42 -16 -86 -48 -107 -79 -14 -20 -13 -23 12 -45 22 -18
31 -21 47 -13 10 6 19 15 19 20 0 17 58 40 99 40 55 0 89 -31 100 -93 8 -47 8
-48 -13 -42 -84 25 -144 18 -208 -25 -54 -36 -72 -74 -73 -151 0 -49 4 -62 31
-96 50 -61 81 -75 181 -76 49 -1 102 2 119 6 29 7 32 6 49 -34 11 -22 33 -52
50 -65 58 -44 155 -26 155 29 0 23 -28 47 -56 47 -36 0 -69 78 -89 215 -39
262 -59 316 -127 351 -43 22 -143 28 -189 11z m146 -303 c39 -22 45 -31 51
-70 3 -24 4 -51 0 -59 -8 -23 -50 -35 -116 -35 -53 0 -61 3 -84 31 -29 34 -30
39 -15 91 18 68 89 86 164 42z"/>
<path d="M1227 1244 c-59 -32 -4 -114 57 -86 30 14 36 61 10 86 -19 20 -31 20
-67 0z"/>
<path d="M998 1229 c-40 -23 -3 -83 48 -77 37 4 51 29 36 62 -12 28 -51 35
-84 15z"/>
<path d="M1651 1113 c-11 -10 -32 -49 -47 -88 -30 -81 -114 -404 -114 -439 0
-31 22 -48 57 -44 25 3 32 12 60 83 17 44 37 79 43 77 7 -1 38 -20 69 -41 116
-79 182 -99 215 -66 28 28 3 66 -67 103 -34 19 -74 42 -87 52 l-24 18 41 45
c47 51 60 82 43 102 -19 23 -45 18 -94 -20 -26 -19 -48 -35 -49 -35 -2 0 5 30
14 68 18 68 24 157 13 186 -8 21 -47 20 -73 -1z"/>
<path d="M275 1101 c-44 -27 -81 -71 -93 -111 -18 -60 -25 -193 -12 -241 41
-157 207 -231 307 -137 l22 21 7 -28 c11 -44 -4 -240 -21 -282 -29 -70 -86
-113 -148 -113 -44 0 -63 16 -102 81 -24 41 -38 55 -58 57 -21 3 -30 -3 -39
-23 -11 -24 -9 -34 16 -81 16 -29 48 -72 73 -95 l45 -41 87 4 c134 7 198 49
240 161 43 116 46 157 33 455 -13 293 -21 347 -51 357 -22 7 -67 -9 -73 -25
-2 -7 -19 3 -40 24 -34 34 -40 36 -100 36 -44 0 -72 -6 -93 -19z m162 -103
c45 -49 61 -98 54 -168 -6 -63 -8 -67 -58 -113 -58 -54 -72 -55 -118 -7 -34
35 -42 95 -27 194 14 85 38 116 92 116 25 0 43 -7 57 -22z"/>
<path d="M2179 1011 c-72 -10 -102 -31 -134 -94 -48 -98 -20 -190 74 -239 119
-62 245 -9 273 114 12 55 -13 138 -55 184 -36 39 -70 47 -158 35z m86 -106
c32 -31 34 -91 4 -129 -44 -56 -149 -21 -149 50 0 38 22 89 42 97 34 14 80 6
103 -18z"/>
<path d="M1045 997 c-90 -35 -120 -69 -136 -152 -11 -58 6 -110 54 -162 53
-58 84 -73 149 -73 71 0 148 43 173 96 39 82 4 235 -64 281 -38 26 -123 31
-176 10z m65 -107 l49 0 16 -52 c8 -28 15 -58 15 -65 0 -23 -47 -63 -74 -63
-33 0 -82 43 -96 85 -15 44 3 110 27 101 8 -3 37 -6 63 -6z"/>
</g>
</svg>
